<?xml version="1.0" standalone="no"?> <!DOCTYPE svg PUBLIC "-//W3C//DTD SVG 20010904//EN" "http://www.w3.org/TR/2001/REC-SVG-20010904/DTD/svg10.dtd"> <svg version="1.0" xmlns="http://www.w3.org/2000/svg" width="100.000000pt" height="100.000000pt" viewBox="0 0 100.000000 100.000000" preserveAspectRatio="xMidYMid meet"> <g transform="translate(0.000000,100.000000) scale(0.100000,-0.100000)" fill="#ffffff" stroke="none"> <path d="M212 924 l-22 -15 0 -405 c0 -391 1 -405 20 -424 19 -19 33 -20 290 -20 257 0 271 1 290 20 19 19 20 33 20 420 0 387 -1 401 -20 420 -19 19 -33 20 -288 20 -226 0 -271 -2 -290 -16z m564 -27 c3 -2 6 -96 7 -208 l2 -204 -265 0 c-182 0 -271 -4 -285 -12 -20 -11 -20 -8 -18 205 l1 217 94 5 c110 6 458 4 464 -3z m-13 -462 c-3 -10 -495 -20 -521 -10 -7 3 -10 9 -7 15 9 14 531 9 528 -5z m-524 -54 c0 -10 -2 -12 -6 -3 -2 6 -8 10 -12 8 -4 -3 -7 4 -7 14 0 14 3 16 13 8 7 -6 13 -18 12 -27z m543 11 c-10 -3 -10 -7 0 -20 10 -14 10 -15 -2 -5 -20 18 -22 43 -2 35 11 -4 12 -7 4 -10z m-507 -2 c3 -5 1 -10 -4 -10 -6 0 -11 5 -11 10 0 6 2 10 4 10 3 0 8 -4 11 -10z m488 -45 c-3 -10 -495 -20 -521 -10 -7 3 -10 9 -7 15 9 14 531 9 528 -5z m23 -49 c-1 -22 -3 -23 -17 -10 -9 8 -19 11 -24 7 -4 -5 -5 -2 -1 5 5 7 14 11 22 8 8 -3 14 -1 14 4 0 6 2 10 4 10 2 0 3 -11 2 -24z m-548 -3 c-6 -7 -14 -10 -19 -7 -15 9 -10 20 10 20 15 0 17 -3 9 -13z m527 -43 c0 -13 -37 -15 -259 -18 -151 -1 -264 2 -269 7 -27 27 10 31 266 29 225 -3 262 -5 262 -18z m-525 -45 c0 -7 -6 -18 -14 -24 -11 -10 -14 -9 -12 3 1 9 5 19 9 22 4 4 1 14 -6 23 -11 14 -10 14 6 2 9 -7 17 -19 17 -26z m537 19 c-3 -3 -1 -18 4 -32 8 -21 7 -23 -5 -13 -8 7 -13 20 -11 29 5 23 4 22 12 22 3 0 4 -3 0 -6z m-14 -69 c-3 -10 -495 -20 -521 -10 -7 3 -10 9 -7 15 9 14 531 9 528 -5z m-257 -45 c152 0 254 -4 254 -9 0 -6 -103 -10 -253 -11 -218 0 -255 2 -272 16 -18 14 -18 15 -2 10 10 -3 133 -6 273 -6z"/> <path d="M487 891 c-10 -4 -17 -10 -15 -13 2 -3 -5 -15 -15 -26 -14 -15 -16 -25 -8 -46 12 -29 13 -29 -51 -27 -36 1 -51 -3 -70 -21 -12 -13 -34 -30 -48 -39 -18 -11 -26 -27 -28 -49 -4 -47 16 -100 36 -100 10 0 23 -9 30 -21 11 -17 11 -20 0 -13 -7 4 -4 -2 6 -14 18 -21 27 -22 178 -22 l158 0 12 25 c6 14 14 25 18 25 3 0 16 9 28 20 18 17 22 32 22 80 0 54 -3 61 -27 77 -16 9 -36 25 -46 35 -12 12 -33 18 -67 18 -27 0 -52 5 -55 10 -3 6 -2 10 3 10 14 0 7 63 -9 69 -8 2 -18 10 -24 17 -6 7 -18 9 -28 5z m39 -46 c4 -8 3 -23 -1 -32 -22 -50 -14 -58 60 -63 62 -4 70 -7 70 -25 0 -15 8 -21 33 -23 l33 -3 -3 -52 c-3 -50 -4 -52 -33 -52 -26 -1 -29 -4 -30 -30 l0 -30 -155 0 -155 0 -5 30 c-4 24 -10 30 -30 30 -23 0 -25 4 -28 53 -3 52 -3 52 27 52 23 0 30 5 33 23 3 20 10 22 73 27 74 5 82 13 60 63 -10 25 1 47 25 47 11 0 23 -7 26 -15z"/> <path d="M375 701 c-3 -5 -2 -12 3 -15 5 -3 9 1 9 9 0 17 -3 19 -12 6z"/> <path d="M414 655 c-9 -23 3 -45 25 -45 20 0 37 32 26 50 -9 15 -45 12 -51 -5z"/> <path d="M535 660 c-12 -20 6 -51 28 -48 31 4 31 52 0 56 -11 2 -24 -2 -28 -8z"/> <path d="M850 61 c0 -6 4 -13 10 -16 6 -3 7 1 4 9 -7 18 -14 21 -14 7z"/> </g> </svg>