<?xml version="1.0" standalone="no"?>
<!DOCTYPE svg PUBLIC "-//W3C//DTD SVG 20010904//EN"
 "http://www.w3.org/TR/2001/REC-SVG-20010904/DTD/svg10.dtd">
<svg version="1.0" xmlns="http://www.w3.org/2000/svg"
 width="80.000000pt" height="91.000000pt" viewBox="0 0 80.000000 91.000000"
 preserveAspectRatio="xMidYMid meet">
<g transform="translate(0.000000,91.000000) scale(0.100000,-0.100000)"
fill="#ffffff" stroke="none">
<path d="M8 608 c-2 -161 -3 -294 -2 -296 1 -2 47 26 103 62 l100 65 -4 47
c-3 25 -7 49 -10 53 -2 5 4 24 14 45 12 23 15 36 7 36 -6 1 -5 6 4 13 15 12
22 30 23 54 0 7 4 10 9 7 5 -3 6 -10 3 -15 -14 -21 13 -7 41 22 16 17 25 30
19 29 -24 -5 -46 1 -40 10 4 7 12 7 18 2 7 -4 28 -9 47 -11 19 -2 41 -8 48
-14 9 -7 16 -7 24 1 23 23 63 13 98 -23 43 -45 32 -47 168 39 l117 74 -3 46
-4 46 -388 0 -388 0 -4 -292z m19 30 c-2 -24 -4 -7 -4 37 0 44 2 63 4 43 2
-21 2 -57 0 -80z m313 107 c0 -3 -2 -5 -5 -5 -3 0 -5 2 -5 5 0 3 2 5 5 5 3 0
5 -2 5 -5z m-90 -10 c0 -3 -2 -5 -5 -5 -3 0 -5 2 -5 5 0 3 2 5 5 5 3 0 5 -2 5
-5z m30 -30 c0 -3 -2 -5 -5 -5 -3 0 -5 2 -5 5 0 3 2 5 5 5 3 0 5 -2 5 -5z
m-223 -37 c-3 -8 -6 -5 -6 6 -1 11 2 17 5 13 3 -3 4 -12 1 -19z m136 -15 c-6
-16 -5 -17 13 -3 17 14 18 14 6 -1 -7 -9 -10 -25 -7 -35 4 -11 -1 -7 -10 9 -9
15 -13 32 -10 37 10 16 15 11 8 -7z m-13 -38 c0 -5 -5 -3 -10 5 -5 8 -10 20
-10 25 0 6 5 3 10 -5 5 -8 10 -19 10 -25z m-10 -20 c0 -3 -2 -5 -5 -5 -3 0 -5
2 -5 5 0 3 2 5 5 5 3 0 5 -2 5 -5z m25 -4 c3 -5 2 -12 -3 -15 -5 -3 -9 1 -9 9
0 17 3 19 12 6z m-15 -36 c0 -3 -2 -5 -5 -5 -3 0 -5 2 -5 5 0 3 2 5 5 5 3 0 5
-2 5 -5z"/>
<path d="M316 684 c-9 -8 -16 -19 -16 -24 0 -4 -9 -10 -20 -13 -11 -3 -20 -13
-20 -22 0 -9 -9 -28 -20 -42 -28 -36 -25 -53 9 -53 17 0 33 -4 36 -10 3 -5 15
-10 26 -10 24 0 37 -29 18 -41 -9 -5 -22 0 -39 16 -15 14 -34 25 -43 25 -23 0
-23 -45 1 -62 9 -7 23 -25 30 -41 21 -48 81 -57 103 -15 8 15 7 24 -5 37 -9
10 -16 31 -16 49 0 23 -9 39 -42 66 -32 28 -39 39 -30 48 18 18 81 -58 82 -99
0 -17 5 -35 10 -38 21 -13 11 91 -10 110 -32 29 -55 84 -41 98 18 18 49 -17
31 -37 -10 -13 -10 -19 0 -31 21 -25 30 -17 30 26 0 71 -36 102 -74 63z m24
-264 c0 -21 -24 -28 -35 -10 -8 14 3 30 21 30 8 0 14 -9 14 -20z"/>
<path d="M320 420 c0 -7 3 -10 7 -7 3 4 3 10 0 14 -4 3 -7 0 -7 -7z"/>
<path d="M420 681 c-12 -24 -14 -171 -1 -171 5 0 14 7 22 16 33 40 99 54 99
20 0 -21 -17 -29 -38 -17 -15 8 -24 5 -42 -14 -13 -14 -29 -25 -37 -25 -16 0
-18 -56 -3 -95 15 -39 79 -33 99 10 8 17 23 36 33 43 11 8 18 24 17 35 -2 12
1 32 5 45 5 16 2 31 -10 50 -10 15 -19 33 -20 41 -4 24 -23 36 -36 23 -7 -7
-20 -12 -30 -12 -20 0 -23 -11 -7 -27 13 -13 4 -33 -16 -33 -18 0 -28 17 -18
33 4 6 8 16 8 22 0 5 11 15 25 22 25 13 28 32 7 45 -21 14 -46 8 -57 -11z
m105 -202 c0 -9 -11 -14 -29 -14 -33 0 -44 -18 -26 -40 18 -22 -7 -52 -26 -33
-15 15 -1 87 16 89 6 1 14 2 19 3 5 0 13 4 17 9 11 11 29 3 29 -14z"/>
<path d="M450 410 c0 -7 3 -10 7 -7 3 4 3 10 0 14 -4 3 -7 0 -7 -7z"/>
<path d="M340 645 c0 -3 2 -5 5 -5 3 0 5 2 5 5 0 3 -2 5 -5 5 -3 0 -5 -2 -5
-5z"/>
<path d="M690 584 c-70 -47 -95 -70 -96 -87 -2 -39 -4 -43 -26 -71 -75 -91
-100 -103 -146 -71 -19 14 -24 14 -47 -1 -14 -9 -34 -14 -46 -11 -20 6 -327
-183 -321 -197 1 -3 2 -37 2 -76 l0 -70 390 0 390 0 0 243 c0 133 3 279 7 325
3 46 2 82 -3 81 -5 0 -52 -29 -104 -65z m-278 -341 c14 -38 33 -85 42 -105
l16 -38 -29 0 c-20 0 -30 6 -34 20 -8 29 -86 29 -94 0 -4 -14 -14 -20 -35 -20
-20 0 -28 4 -25 12 3 7 21 49 39 93 42 102 45 105 71 105 18 0 27 -13 49 -67z
m128 -38 l0 -105 -25 0 -25 0 0 105 0 105 25 0 25 0 0 -105z m240 -150 c0 -32
-4 -45 -14 -45 -8 0 -13 8 -11 18 2 9 4 29 4 45 2 46 21 30 21 -18z m-40 30
c0 -3 -2 -5 -5 -5 -3 0 -5 2 -5 5 0 3 2 5 5 5 3 0 5 -2 5 -5z m0 -52 c0 -21
-3 -24 -9 -14 -5 8 -7 20 -4 28 8 21 13 15 13 -14z m-30 2 c0 -3 -2 -5 -5 -5
-3 0 -5 2 -5 5 0 3 2 5 5 5 3 0 5 -2 5 -5z"/>
<path d="M346 228 c-10 -38 -7 -48 15 -48 18 0 20 4 14 28 -9 39 -21 47 -29
20z"/>
<path d="M450 590 c0 -7 3 -10 7 -7 3 4 3 10 0 14 -4 3 -7 0 -7 -7z"/>
<path d="M510 545 c0 -3 2 -5 5 -5 3 0 5 2 5 5 0 3 -2 5 -5 5 -3 0 -5 -2 -5
-5z"/>
<path d="M310 485 c0 -3 2 -5 5 -5 3 0 5 2 5 5 0 3 -2 5 -5 5 -3 0 -5 -2 -5
-5z"/>
</g>
</svg>
